<svg width="44" height="45" viewBox="0 0 44 45" fill="none" xmlns="http://www.w3.org/2000/svg">
<g clip-path="url(#clip0_8007_168)">
<path d="M44 14.25C44 11.2168 41.5332 8.75 38.5 8.75C36.8445 8.75 35.3787 9.498 34.3695 10.6585L27.368 7.1715C27.4505 6.7975 27.5 6.4015 27.5 6C27.5 2.96675 25.0333 0.5 22 0.5C18.9667 0.5 16.5 2.96675 16.5 6C16.5 7.023 16.7997 7.969 17.2865 8.7885L11.022 15.0255C10.1844 14.5228 9.22687 14.2549 8.25 14.25C5.21675 14.25 2.75 16.7167 2.75 19.75C2.75 22.61 4.95 24.9393 7.74675 25.2005L8.76425 31.2367C7.7944 31.6683 6.97013 32.3712 6.39092 33.2608C5.8117 34.1503 5.50228 35.1885 5.5 36.25C5.5 39.2832 7.96675 41.75 11 41.75C12.1009 41.748 13.1759 41.4156 14.0859 40.7959C14.9958 40.1762 15.6989 39.2977 16.104 38.274L27.5715 39.7067C27.9235 42.4017 30.2115 44.5 33 44.5C36.0332 44.5 38.5 42.0332 38.5 39C38.5 36.8688 37.268 35.04 35.4915 34.1243L38.6898 19.7308C40.1124 19.683 41.4611 19.085 42.4516 18.0627C43.4421 17.0403 43.9972 15.6735 44 14.25ZM35.75 37.625V40.375C35.75 40.7397 35.6051 41.0894 35.3473 41.3473C35.0894 41.6051 34.7397 41.75 34.375 41.75H31.625C31.2603 41.75 30.9106 41.6051 30.6527 41.3473C30.3949 41.0894 30.25 40.7397 30.25 40.375V37.625C30.25 37.2603 30.3949 36.9106 30.6527 36.6527C30.9106 36.3949 31.2603 36.25 31.625 36.25H34.375C34.7397 36.25 35.0894 36.3949 35.3473 36.6527C35.6051 36.9106 35.75 37.2603 35.75 37.625ZM13.75 37.625C13.75 37.9897 13.6051 38.3394 13.3473 38.5973C13.0894 38.8551 12.7397 39 12.375 39H9.625C9.26033 39 8.91059 38.8551 8.65273 38.5973C8.39487 38.3394 8.25 37.9897 8.25 37.625V34.875C8.25 34.5103 8.39487 34.1606 8.65273 33.9027C8.91059 33.6449 9.26033 33.5 9.625 33.5H12.375C12.7397 33.5 13.0894 33.6449 13.3473 33.9027C13.6051 34.1606 13.75 34.5103 13.75 34.875V37.625ZM5.5 21.125V18.375C5.5 18.0103 5.64487 17.6606 5.90273 17.4027C6.16059 17.1449 6.51033 17 6.875 17H9.625C9.98967 17 10.3394 17.1449 10.5973 17.4027C10.8551 17.6606 11 18.0103 11 18.375V21.125C11 21.4897 10.8551 21.8394 10.5973 22.0973C10.3394 22.3551 9.98967 22.5 9.625 22.5H6.875C6.51033 22.5 6.16059 22.3551 5.90273 22.0973C5.64487 21.8394 5.5 21.4897 5.5 21.125ZM19.25 4.625C19.25 4.26033 19.3949 3.91059 19.6527 3.65273C19.9106 3.39487 20.2603 3.25 20.625 3.25H23.375C23.7397 3.25 24.0894 3.39487 24.3473 3.65273C24.6051 3.91059 24.75 4.26033 24.75 4.625V7.375C24.75 7.73967 24.6051 8.08941 24.3473 8.34727C24.0894 8.60513 23.7397 8.75 23.375 8.75H20.625C20.2603 8.75 19.9106 8.60513 19.6527 8.34727C19.3949 8.08941 19.25 7.73967 19.25 7.375V4.625ZM21.5105 11.4505L22.517 17.484C21.2795 18.0368 20.284 19.0322 19.7313 20.2725L13.7005 19.2687C13.6324 18.4563 13.3824 17.6697 12.969 16.967L19.239 10.7273C19.9155 11.126 20.6855 11.3763 21.5105 11.4505ZM27.5 21.125V23.875C27.5 24.2397 27.3551 24.5894 27.0973 24.8473C26.8394 25.1051 26.4897 25.25 26.125 25.25H23.375C23.0103 25.25 22.6606 25.1051 22.4027 24.8473C22.1449 24.5894 22 24.2397 22 23.875V21.125C22 20.7603 22.1449 20.4106 22.4027 20.1527C22.6606 19.8949 23.0103 19.75 23.375 19.75H26.125C26.4897 19.75 26.8394 19.8949 27.0973 20.1527C27.3551 20.4106 27.5 20.7603 27.5 21.125ZM13.266 21.983L19.2995 22.9867C19.3738 23.8283 19.6295 24.612 20.042 25.3022L13.7858 31.5337C13.0808 31.1183 12.2912 30.8673 11.4757 30.7995L10.4638 24.777C11.7095 24.227 12.7077 23.226 13.266 21.983ZM15.7218 33.4725L21.9725 27.2218C22.792 27.703 23.7325 28 24.75 28C25.1597 28 25.5557 27.945 25.9407 27.8625L29.414 34.864C28.754 35.436 28.226 36.151 27.896 36.976L16.4285 35.5433C16.3358 34.8122 16.0953 34.1077 15.7218 33.4725ZM31.8505 33.6265L28.3498 26.625C29.5047 25.6157 30.25 24.15 30.25 22.5C30.2426 21.9747 30.1593 21.4532 30.0025 20.9517L34.6472 18.166C35.0433 18.5565 35.508 18.87 36.0085 19.1257L32.8075 33.5192C32.486 33.527 32.1658 33.5629 31.8505 33.6265ZM35.75 12.875C35.75 12.5103 35.8949 12.1606 36.1527 11.9027C36.4106 11.6449 36.7603 11.5 37.125 11.5H39.875C40.2397 11.5 40.5894 11.6449 40.8473 11.9027C41.1051 12.1606 41.25 12.5103 41.25 12.875V15.625C41.25 15.9897 41.1051 16.3394 40.8473 16.5973C40.5894 16.8551 40.2397 17 39.875 17H37.125C36.7603 17 36.4106 16.8551 36.1527 16.5973C35.8949 16.3394 35.75 15.9897 35.75 15.625V12.875ZM33.1238 13.1088C33.0428 13.4838 33.0013 13.8663 33 14.25C33 14.7917 33.1018 15.3033 33.2475 15.7983L28.6028 18.584C27.6922 17.6967 26.5011 17.1542 25.234 17.0495L24.2275 11.0188C24.9563 10.6943 25.5887 10.2102 26.1112 9.61625L33.1238 13.1088Z" fill="white"/>
</g>
<defs>
<clipPath id="clip0_8007_168">
<rect width="44" height="44" fill="white" transform="translate(0 0.5)"/>
</clipPath>
</defs>
</svg>
