<svg width="44" height="45" viewBox="0 0 44 45" fill="none" xmlns="http://www.w3.org/2000/svg">
<g clip-path="url(#clip0_8007_142)">
<path d="M28.875 39C30.3938 39 31.625 37.7688 31.625 36.25C31.625 34.7312 30.3938 33.5 28.875 33.5C27.3562 33.5 26.125 34.7312 26.125 36.25C26.125 37.7688 27.3562 39 28.875 39Z" fill="white"/>
<path d="M28.875 11.5C30.3938 11.5 31.625 10.2688 31.625 8.75C31.625 7.23122 30.3938 6 28.875 6C27.3562 6 26.125 7.23122 26.125 8.75C26.125 10.2688 27.3562 11.5 28.875 11.5Z" fill="white"/>
<path d="M5.5 25.25C7.01878 25.25 8.25 24.0188 8.25 22.5C8.25 20.9812 7.01878 19.75 5.5 19.75C3.98122 19.75 2.75 20.9812 2.75 22.5C2.75 24.0188 3.98122 25.25 5.5 25.25Z" fill="white"/>
<path d="M38.5 17C37.284 17.0037 36.1036 17.4107 35.1436 18.1571C34.1837 18.9036 33.4985 19.9474 33.1954 21.125H27.3046C27.1099 20.3495 26.7471 19.6263 26.2418 19.0066C25.7364 18.387 25.101 17.886 24.3805 17.5393C23.66 17.1926 22.8721 17.0086 22.0726 17.0003C21.273 16.992 20.4815 17.1597 19.7539 17.4914L15.3863 12.0324C16.1049 11.0887 16.496 9.9362 16.5 8.75C16.5 7.66221 16.1774 6.59884 15.5731 5.69437C14.9687 4.7899 14.1098 4.08495 13.1048 3.66867C12.0998 3.25238 10.9939 3.14346 9.92701 3.35568C8.86011 3.5679 7.8801 4.09173 7.11091 4.86092C6.34173 5.6301 5.8179 6.61011 5.60568 7.67701C5.39346 8.7439 5.50238 9.84977 5.91866 10.8548C6.33495 11.8598 7.0399 12.7187 7.94437 13.3231C8.84884 13.9274 9.91221 14.25 11 14.25C11.7753 14.248 12.5412 14.0804 13.2465 13.7586L17.6135 19.2173C16.8915 20.1592 16.5001 21.3129 16.5001 22.4997C16.5001 23.6865 16.8915 24.8402 17.6135 25.7821L13.2468 31.2409C12.5413 30.9192 11.7753 30.7518 11 30.75C9.91221 30.75 8.84884 31.0726 7.94437 31.6769C7.0399 32.2813 6.33495 33.1403 5.91866 34.1452C5.50238 35.1502 5.39346 36.2561 5.60568 37.323C5.8179 38.3899 6.34173 39.3699 7.11091 40.1391C7.8801 40.9083 8.86011 41.4321 9.92701 41.6443C10.9939 41.8565 12.0998 41.7476 13.1048 41.3313C14.1098 40.9151 14.9687 40.2101 15.5731 39.3056C16.1774 38.4012 16.5 37.3378 16.5 36.25C16.496 35.0638 16.1049 33.9113 15.3863 32.9676L19.753 27.5089C20.4806 27.8407 21.2722 28.0084 22.0719 28.0002C22.8715 27.9919 23.6596 27.8079 24.3802 27.4612C25.1008 27.1144 25.7363 26.6134 26.2417 25.9937C26.747 25.3739 27.1099 24.6506 27.3046 23.875H33.1954C33.4542 24.8687 33.9865 25.7699 34.7319 26.4763C35.4772 27.1827 36.4056 27.6659 37.4118 27.8711C38.418 28.0763 39.4615 27.9952 40.4239 27.6371C41.3863 27.279 42.229 26.6582 42.8563 25.8452C43.4836 25.0322 43.8703 24.0596 43.9726 23.0378C44.0749 22.0161 43.8886 20.9861 43.4349 20.0649C42.9812 19.1437 42.2783 18.3682 41.406 17.8264C40.5336 17.2846 39.5269 16.9983 38.5 17ZM8.25 8.75C8.25 8.2061 8.41129 7.67442 8.71346 7.22218C9.01563 6.76995 9.44513 6.41747 9.94762 6.20933C10.4501 6.00119 11.0031 5.94673 11.5365 6.05284C12.0699 6.15895 12.56 6.42086 12.9445 6.80546C13.3291 7.19005 13.5911 7.68006 13.6972 8.2135C13.8033 8.74695 13.7488 9.29989 13.5407 9.80238C13.3325 10.3049 12.9801 10.7344 12.5278 11.0365C12.0756 11.3387 11.5439 11.5 11 11.5C10.2709 11.4992 9.57193 11.2092 9.05638 10.6936C8.54084 10.1781 8.25084 9.47909 8.25 8.75ZM11 39C10.4561 39 9.92442 38.8387 9.47218 38.5365C9.01995 38.2344 8.66747 37.8049 8.45933 37.3024C8.25119 36.7999 8.19673 36.247 8.30284 35.7135C8.40895 35.1801 8.67086 34.6901 9.05546 34.3055C9.44005 33.9209 9.93006 33.659 10.4635 33.5528C10.997 33.4467 11.5499 33.5012 12.0524 33.7093C12.5549 33.9175 12.9844 34.2699 13.2865 34.7222C13.5887 35.1744 13.75 35.7061 13.75 36.25C13.7492 36.9791 13.4592 37.6781 12.9436 38.1936C12.4281 38.7092 11.7291 38.9992 11 39ZM22 25.25C21.4561 25.25 20.9244 25.0887 20.4722 24.7865C20.0199 24.4844 19.6675 24.0549 19.4593 23.5524C19.2512 23.0499 19.1967 22.497 19.3028 21.9635C19.409 21.4301 19.6709 20.9401 20.0555 20.5555C20.4401 20.1709 20.9301 19.909 21.4635 19.8028C21.997 19.6967 22.5499 19.7512 23.0524 19.9593C23.5549 20.1675 23.9844 20.5199 24.2865 20.9722C24.5887 21.4244 24.75 21.9561 24.75 22.5C24.7492 23.2291 24.4592 23.9281 23.9436 24.4436C23.4281 24.9592 22.7291 25.2492 22 25.25ZM38.5 25.25C37.9561 25.25 37.4244 25.0887 36.9722 24.7865C36.5199 24.4844 36.1675 24.0549 35.9593 23.5524C35.7512 23.0499 35.6967 22.497 35.8028 21.9635C35.9089 21.4301 36.1709 20.9401 36.5555 20.5555C36.9401 20.1709 37.4301 19.909 37.9635 19.8028C38.4969 19.6967 39.0499 19.7512 39.5524 19.9593C40.0549 20.1675 40.4844 20.5199 40.7865 20.9722C41.0887 21.4244 41.25 21.9561 41.25 22.5C41.2492 23.2291 40.9592 23.9281 40.4436 24.4436C39.9281 24.9592 39.2291 25.2492 38.5 25.25Z" fill="white"/>
</g>
<defs>
<clipPath id="clip0_8007_142">
<rect width="44" height="44" fill="white" transform="translate(0 0.5)"/>
</clipPath>
</defs>
</svg>
