<svg width="64" height="64" viewBox="0 0 64 64" fill="none" xmlns="http://www.w3.org/2000/svg">
<g clip-path="url(#clip0_8001_1783)">
<path d="M58.6667 0H5.33333C3.91885 0 2.56229 0.561903 1.5621 1.5621C0.561903 2.56229 0 3.91885 0 5.33333L0 58.6667C0 60.0812 0.561903 61.4377 1.5621 62.4379C2.56229 63.4381 3.91885 64 5.33333 64H58.6667C60.0812 64 61.4377 63.4381 62.4379 62.4379C63.4381 61.4377 64 60.0812 64 58.6667V5.33333C64 3.91885 63.4381 2.56229 62.4379 1.5621C61.4377 0.561903 60.0812 0 58.6667 0ZM16 42.6667C15.4726 42.6667 14.957 42.5103 14.5185 42.2173C14.0799 41.9242 13.7382 41.5078 13.5363 41.0205C13.3345 40.5332 13.2817 39.997 13.3846 39.4798C13.4875 38.9625 13.7414 38.4873 14.1144 38.1144C14.4873 37.7414 14.9625 37.4875 15.4798 37.3846C15.997 37.2817 16.5332 37.3345 17.0205 37.5363C17.5078 37.7382 17.9242 38.0799 18.2173 38.5185C18.5103 38.957 18.6667 39.4726 18.6667 40C18.6659 40.707 18.3846 41.3848 17.8847 41.8847C17.3848 42.3846 16.707 42.6659 16 42.6667ZM58.6667 16H52.8434C52.2144 14.2208 50.9766 12.7212 49.3488 11.7663C47.721 10.8114 45.8081 10.4628 43.9481 10.7819C42.0881 11.101 40.4008 12.0674 39.1845 13.5102C37.9681 14.9531 37.3009 16.7795 37.3009 18.6667C37.3009 20.5538 37.9681 22.3802 39.1845 23.8231C40.4008 25.2659 42.0881 26.2323 43.9481 26.5515C45.8081 26.8706 47.721 26.5219 49.3488 25.567C50.9766 24.6121 52.2144 23.1126 52.8434 21.3333H58.6667V32H48V37.3333H58.6667V42.6667H53.3333V48H58.6667V58.6667H37.3333V55.5101C39.1126 54.881 40.6121 53.6432 41.567 52.0155C42.5219 50.3877 42.8706 48.4748 42.5515 46.6148C42.2323 44.7548 41.2659 43.0675 39.8231 41.8511C38.3802 40.6348 36.5538 39.9676 34.6667 39.9676C32.7795 39.9676 30.9531 40.6348 29.5102 41.8511C28.0674 43.0675 27.101 44.7548 26.7819 46.6148C26.4628 48.4748 26.8114 50.3877 27.7663 52.0155C28.7212 53.6432 30.2208 54.881 32 55.5101V58.6667H18.6667V47.5101C20.4459 46.881 21.9455 45.6432 22.9004 44.0155C23.8552 42.3877 24.2039 40.4748 23.8848 38.6148C23.5657 36.7548 22.5993 35.0675 21.1564 33.8511C19.7136 32.6348 17.8872 31.9676 16 31.9676C14.1128 31.9676 12.2864 32.6348 10.8436 33.8511C9.40072 35.0675 8.43433 36.7548 8.11521 38.6148C7.79609 40.4748 8.14478 42.3877 9.09965 44.0155C10.0545 45.6432 11.5541 46.881 13.3333 47.5101V58.6667H5.33333V5.33333H16V21.3333H21.3333V5.33333H26.6667V32H32V5.33333H58.6667V16ZM48 18.6667C48 19.1941 47.8436 19.7097 47.5506 20.1482C47.2576 20.5867 46.8411 20.9285 46.3538 21.1303C45.8666 21.3322 45.3304 21.385 44.8131 21.2821C44.2958 21.1792 43.8207 20.9252 43.4477 20.5523C43.0748 20.1793 42.8208 19.7042 42.7179 19.1869C42.615 18.6696 42.6678 18.1334 42.8697 17.6462C43.0715 17.1589 43.4133 16.7424 43.8518 16.4494C44.2903 16.1564 44.8059 16 45.3333 16C46.0403 16.0008 46.7181 16.282 47.2181 16.7819C47.718 17.2819 47.9992 17.9597 48 18.6667Z" fill="black"/>
</g>
<defs>
<clipPath id="clip0_8001_1783">
<rect width="64" height="64" fill="white"/>
</clipPath>
</defs>
</svg>
