<svg width="16" height="17" viewBox="0 0 16 17" fill="none" xmlns="http://www.w3.org/2000/svg">
<path d="M8.00024 12.0666C8.60039 12.0666 9.08691 11.5801 9.08691 10.98C9.08691 10.3798 8.60039 9.89331 8.00024 9.89331C7.40009 9.89331 6.91357 10.3798 6.91357 10.98C6.91357 11.5801 7.40009 12.0666 8.00024 12.0666Z" fill="#818EA1"/>
<path d="M12.1868 6.85325V6.01992C12.1868 4.21992 11.7535 1.83325 8.00016 1.83325C4.24683 1.83325 3.8135 4.21992 3.8135 6.01992V6.85325C1.94683 7.08659 1.3335 8.03325 1.3335 10.3599V11.5999C1.3335 14.3333 2.16683 15.1666 4.90016 15.1666H11.1002C13.8335 15.1666 14.6668 14.3333 14.6668 11.5999V10.3599C14.6668 8.03325 14.0535 7.08659 12.1868 6.85325ZM8.00016 12.9933C6.88683 12.9933 5.98683 12.0866 5.98683 10.9799C5.98683 9.86659 6.8935 8.96659 8.00016 8.96659C9.10683 8.96659 10.0135 9.87325 10.0135 10.9799C10.0135 12.0933 9.1135 12.9933 8.00016 12.9933ZM4.90016 6.79325C4.84683 6.79325 4.80016 6.79325 4.74683 6.79325V6.01992C4.74683 4.06659 5.30016 2.76659 8.00016 2.76659C10.7002 2.76659 11.2535 4.06659 11.2535 6.01992V6.79992C11.2002 6.79992 11.1535 6.79992 11.1002 6.79992H4.90016V6.79325Z" fill="#818EA1"/>
</svg>
